<?xml version="1.0" standalone="no"?>
<!DOCTYPE svg PUBLIC "-//W3C//DTD SVG 20010904//EN"
 "http://www.w3.org/TR/2001/REC-SVG-20010904/DTD/svg10.dtd">
<svg version="1.0" xmlns="http://www.w3.org/2000/svg"
 width="130.000000pt" height="130.000000pt" viewBox="0 0 130.000000 130.000000"
 preserveAspectRatio="xMidYMid meet">
<metadata>
Created by potrace 1.11, written by Peter Selinger 2001-2013
</metadata>
<g transform="translate(0.000000,130.000000) scale(0.100000,-0.100000)"
fill="#000000" stroke="none">
<path d="M378 1117 l-268 -152 0 -310 0 -310 195 -113 c107 -63 197 -113 201
-112 4 1 10 -2 13 -7 9 -13 114 -76 127 -76 6 0 131 68 278 152 l266 153 -2
310 -3 310 -255 150 c-140 83 -262 152 -270 154 -8 2 -135 -65 -282 -149z
m513 -59 l228 -133 -2 -275 -2 -274 -185 -107 c-102 -59 -207 -118 -235 -133
l-50 -25 -232 136 -233 135 0 272 0 272 232 132 c127 73 236 132 241 132 6 0
113 -60 238 -132z"/>
<path d="M653 834 c-49 -34 -52 -39 -63 -100 -14 -74 -4 -97 39 -92 22 3 28
11 38 53 12 47 33 75 58 75 6 0 67 -33 135 -73 106 -61 125 -76 128 -99 2 -17
-4 -34 -17 -47 -20 -20 -28 -41 -15 -41 3 0 35 8 70 17 60 16 64 19 70 51 10
51 -2 133 -26 189 l-21 50 -79 -19 -79 -20 -79 46 c-43 25 -85 46 -93 46 -8 0
-38 -16 -66 -36z"/>
<path d="M570 834 c-19 -14 -52 -34 -73 -45 -37 -20 -38 -20 -110 1 -39 12
-79 23 -89 26 -26 7 -52 -84 -53 -185 l0 -84 77 -22 c70 -20 78 -21 92 -6 14
13 21 13 48 3 21 -8 36 -8 42 -2 15 15 52 12 65 -4 8 -10 23 -13 45 -9 27 4
37 0 52 -20 11 -13 30 -27 42 -31 27 -9 45 -41 37 -66 -5 -16 -2 -20 14 -20
30 0 40 46 15 65 -30 22 -5 17 34 -7 34 -21 35 -21 48 -3 22 29 17 44 -21 66
-19 12 -35 25 -35 30 0 6 20 -2 43 -16 56 -32 75 -32 83 2 7 28 3 33 -57 66
-47 26 -28 31 24 6 51 -25 80 -20 75 13 -2 16 -34 40 -118 90 -63 37 -122 66
-130 65 -9 -1 -21 -25 -30 -62 l-16 -60 -43 1 c-33 1 -49 7 -62 22 -16 20 -16
27 -3 85 11 47 22 68 45 88 25 22 27 27 14 33 -20 7 -13 10 -55 -20z"/>
<path d="M418 484 c-10 -21 -9 -27 3 -35 23 -14 37 -11 50 13 10 18 8 24 -7
35 -25 18 -33 16 -46 -13z"/>
<path d="M505 473 c-29 -44 -31 -58 -9 -67 27 -10 34 -7 54 27 25 40 25 54 0
67 -16 9 -23 5 -45 -27z"/>
<path d="M577 434 c-26 -53 -27 -57 -10 -69 22 -17 33 -8 68 51 21 36 24 48
15 60 -24 28 -45 15 -73 -42z"/>
<path d="M651 388 c-28 -48 -29 -54 -14 -65 9 -7 22 -13 28 -13 15 0 55 72 55
98 0 16 -17 32 -35 32 -2 0 -17 -24 -34 -52z"/>
</g>
</svg>
