<svg id="Layer_1" data-name="Layer 1" xmlns="http://www.w3.org/2000/svg" viewBox="0 0 335.76 81.34"><defs><style>.cls-1{fill:#214292;}.cls-2{fill:#5abe82;}.cls-3{fill:#f2f1f1;}</style></defs><title>NextLevelFinancial_Logo</title><path class="cls-1" d="M141.91,4.56h4.94l9.46,22.17V4.56h5.86V43.44h-4.71L148,20.21V43.44h-6.05Z" transform="translate(0 -4.54)"/><path class="cls-1" d="M167.11,33.7V25.44c0-6.67,2.78-10.18,8.93-10.18,6.53,0,8.59,3.84,8.59,10.61v4h-11v5.48c0,2.73.82,3.84,2.5,3.84s2.35-1.2,2.35-3.6V33.21h6.14v1.93c0,5.61-2.83,8.73-8.54,8.73C169.8,43.87,167.11,40.27,167.11,33.7Zm11.33-7.06V24c0-2.79-.58-4-2.4-4s-2.45,1.1-2.45,4.75v1.92Z" transform="translate(0 -4.54)"/><path class="cls-1" d="M192.84,28.51,187,15.69h6.38L197,23.37,200,15.69h5.57L199.7,29.42l6.34,14h-6.43l-3.89-8.5-3.27,8.5h-5.66Z" transform="translate(0 -4.54)"/><path class="cls-1" d="M209.93,36.53V20h-2.79V15.69h2.79V7.39h6.57v8.3h4.18V20H216.5V36c0,1.87.82,2.64,2.5,2.64a9.46,9.46,0,0,0,2-.19v5a24.93,24.93,0,0,1-4.17.34C211.51,43.78,209.93,41,209.93,36.53Z" transform="translate(0 -4.54)"/><path class="cls-1" d="M225.19,4.56h7.06v34h9.45v4.85H225.19Z" transform="translate(0 -4.54)"/><path class="cls-1" d="M244.44,33.7V25.44c0-6.67,2.78-10.18,8.92-10.18,6.53,0,8.6,3.84,8.6,10.61v4h-11v5.48c0,2.73.81,3.84,2.49,3.84s2.35-1.2,2.35-3.6V33.21h6.15v1.93c0,5.61-2.83,8.73-8.55,8.73C247.12,43.87,244.44,40.27,244.44,33.7Zm11.32-7.06V24c0-2.79-.57-4-2.4-4s-2.44,1.1-2.44,4.75v1.92Z" transform="translate(0 -4.54)"/><path class="cls-1" d="M264.5,15.69h6.34l2.83,19.93,2.78-19.93h6.29l-5.52,27.75H270Z" transform="translate(0 -4.54)"/><path class="cls-1" d="M285.24,33.7V25.44c0-6.67,2.78-10.18,8.92-10.18,6.53,0,8.6,3.84,8.6,10.61v4h-11v5.48c0,2.73.81,3.84,2.49,3.84s2.35-1.2,2.35-3.6V33.21h6.15v1.93c0,5.61-2.83,8.73-8.55,8.73C287.92,43.87,285.24,40.27,285.24,33.7Zm11.32-7.06V24c0-2.79-.57-4-2.4-4s-2.44,1.1-2.44,4.75v1.92Z" transform="translate(0 -4.54)"/><path class="cls-1" d="M307.6,4.56h6.49V43.44H307.6Z" transform="translate(0 -4.54)"/><path class="cls-2" d="M141.91,46.56h16v4.89H149V62.78h7.29v5H149V85.44h-7.06Z" transform="translate(0 -4.54)"/><path class="cls-2" d="M163,47.85h6.53v5.43H163Zm0,9.84h6.53V85.44H163Z" transform="translate(0 -4.54)"/><path class="cls-2" d="M176.18,57.69h6.53v2.74c2-1.87,4.18-3.17,6.72-3.17,3.36,0,4.7,2.88,4.7,6.1V85.44h-6.52V64.65c0-1.68-.39-2.59-1.88-2.59a5.75,5.75,0,0,0-3,1.35v22h-6.53Z" transform="translate(0 -4.54)"/><path class="cls-2" d="M199.8,79.29c0-6.91,5.61-9,11.18-11.08v-2.4c0-2.36-.33-3.7-2.21-3.7-1.68,0-2.25,1.25-2.3,3.07l-.1,1.68-6.19-.24c.19-6.38,3.07-9.36,9.12-9.36,5.57,0,8,3.27,8,8.55V78.62a50.94,50.94,0,0,0,.48,6.82h-5.86c-.24-1.25-.57-3.22-.67-4a5.7,5.7,0,0,1-5.47,4.41C202.05,85.87,199.8,82.51,199.8,79.29ZM211,79.2V71.42c-2.88,1.68-5,3.27-5,6.29,0,2.07.82,3.31,2.26,3.31A3.78,3.78,0,0,0,211,79.2Z" transform="translate(0 -4.54)"/><path class="cls-2" d="M223.6,57.69h6.53v2.74c2-1.87,4.18-3.17,6.72-3.17,3.36,0,4.71,2.88,4.71,6.1V85.44H235V64.65c0-1.68-.38-2.59-1.87-2.59a5.77,5.77,0,0,0-3,1.35v22H223.6Z" transform="translate(0 -4.54)"/><path class="cls-2" d="M247.32,75.74V67.39c0-6.38,2.49-10.13,8.88-10.13,5.95,0,8.49,2.88,8.49,8.55v2.3h-6.14V65.66c0-2.88-.62-3.79-2.3-3.79-1.88,0-2.4,1.15-2.4,4.7V76.75c0,3.55.72,4.51,2.4,4.51,1.87,0,2.3-1.29,2.3-3.74v-3h6.14v2.64c0,5.62-2.59,8.69-8.49,8.69C249.76,85.87,247.32,82,247.32,75.74Z" transform="translate(0 -4.54)"/><path class="cls-2" d="M270.69,47.85h6.53v5.43h-6.53Zm0,9.84h6.53V85.44h-6.53Z" transform="translate(0 -4.54)"/><path class="cls-2" d="M283.27,79.29c0-6.91,5.61-9,11.18-11.08v-2.4c0-2.36-.33-3.7-2.21-3.7-1.68,0-2.25,1.25-2.3,3.07l-.1,1.68-6.19-.24c.19-6.38,3.07-9.36,9.12-9.36,5.57,0,8,3.27,8,8.55V78.62a50.94,50.94,0,0,0,.48,6.82h-5.86c-.24-1.25-.57-3.22-.67-4a5.7,5.7,0,0,1-5.47,4.41C285.52,85.87,283.27,82.51,283.27,79.29Zm11.18-.09V71.42c-2.88,1.68-5,3.27-5,6.29,0,2.07.82,3.31,2.26,3.31A3.78,3.78,0,0,0,294.45,79.2Z" transform="translate(0 -4.54)"/><path class="cls-2" d="M307.51,46.56H314V85.44h-6.48Z" transform="translate(0 -4.54)"/><rect class="cls-1" y="74.81" width="57.6" height="5.76" rx="2.88"/><rect class="cls-2" x="14.82" y="59.71" width="57.6" height="5.76" rx="2.88"/><rect class="cls-1" x="28.8" y="44.62" width="57.6" height="5.76" rx="2.88"/><rect class="cls-2" x="43.62" y="29.6" width="57.6" height="5.76" rx="2.88"/><rect class="cls-1" x="57.6" y="14.75" width="57.6" height="5.76" rx="2.88"/><rect class="cls-2" x="72.42" width="57.6" height="5.76" rx="2.88"/><path class="cls-3" d="M124.83,20.27,70.56,80.45a3,3,0,0,0,2.21,5H127a3,3,0,0,0,3-3V22.26A3,3,0,0,0,124.83,20.27Z" transform="translate(0 -4.54)"/><path class="cls-1" d="M322.59,6.07h-1.8V4.55h5.64V6.07h-1.76v9.82h-2.08Z" transform="translate(0 -4.54)"/><path class="cls-1" d="M328,4.55h2.14l1.61,7.85,1.67-7.85h2.09l.21,11.34h-1.54L334.05,8l-1.61,7.88h-1.25L329.55,8l-.15,7.91h-1.56Z" transform="translate(0 -4.54)"/></svg>